<svg xmlns="http://www.w3.org/2000/svg" width="256" height="256" viewBox="0 0 100 100"><rect width="100" height="100" fill="#fff" rx="20"/><path d="M9.7 86.2q-.7 0-1.3-.5-.7-.4-.7-1.2 0-1.8 2.1-2.4 3.7-.9 5.2-2.2 1.4-1.3 1.4-4.7v-50q0-3.5-1.4-4.9-1.3-1.4-5.2-2.4-2-.6-2-2.4 0-.8.6-1.3.6-.4 1.3-.4l5.3.1 5.6.3 5 .2 5.2-.2 6.3-.2h5.5q1.7 0 1.7 1.6 0 1-.5 1.5l-1.5.8q-4.6 1.3-5.9 2.7-1.3 1.5-1.3 4.8v19.4q0 1 .5 1.3.5.4 1.3.4h26.5q1.5 0 1.5-1.7V25.4q0-3.3-1.3-4.8-1.3-1.4-5.8-2.7-1-.3-1.6-.8-.5-.4-.5-1.5 0-1.7 1.7-1.7l5.5.1 6.4.3h5.2l5-.1 5.5-.3h5.3q.7 0 1.3.3.7.5.7 1.3 0 1.8-2 2.4-4 1-5.3 2.4-1.4 1.4-1.4 5v49.9q0 3.4 1.4 4.7 1.5 1.3 5.2 2.2 2.1.6 2.1 2.4 0 .8-.7 1.3-.6.4-1.3.4l-5-.2-5.7-.3H69.2L63 86h-5.5q-.7 0-1.2-.4t-.5-1.2q0-1 .5-1.5.6-.5 1.6-.8 4.3-1.2 5.7-2.6 1.4-1.3 1.4-4.4V54.6q0-.9-.3-1.4-.3-.5-1.2-.5H36.9q-1.8 0-1.8 2V75q0 3 1.4 4.4 1.5 1.4 5.8 2.6 1 .4 1.5.8t.5 1.5q0 .8-.4 1.2-.4.5-1.3.5L37 86l-6.3-.3H20.5l-5.9.3-5 .2Z"/></svg>